<?xml version="1.0" encoding="utf-8"?>
<!-- Generator: Adobe Illustrator 23.0.3, SVG Export Plug-In . SVG Version: 6.00 Build 0)  -->
<svg version="1.1" id="Layer_1" xmlns="http://www.w3.org/2000/svg" xmlns:xlink="http://www.w3.org/1999/xlink" x="0px" y="0px"
	 viewBox="0 0 841.9 595.3" style="enable-background:new 0 0 841.9 595.3;" xml:space="preserve">
<path d="M554.3,483.7l2.1-9.5l1.6-8.6c0.3-0.2,0.8-0.6,1.4-1.2l4.1-3.7c1.1-1.1,2.5-2.3,3.9-3.5c2.6-2.3,5.6-5,8.3-7.9l11.2-12.3
	c1.1-1.1,1.9-2.3,2.6-3.2c0.3-0.4,0.6-0.8,0.9-1.2l1-1.4l11.6-2.4l1.7-2.3c0.2-0.3,0.5-0.6,0.7-1c0.9-1.2,2-2.6,3-4.4
	c0.9-1.6,2-3.3,3.1-5.1c2.2-3.6,4.7-7.7,7.1-11.9l8.6-17.8c0.8-1.6,1.3-3.2,1.7-4.4c0.2-0.6,0.4-1.2,0.6-1.7l0.7-2l6.5-3.6l6.7-3.9
	c0.4-0.1,0.7-0.6,1.7-3.8l5.3-20.7c0.6-3,1.1-6.1,1.5-9.3c0.2-1.6,0.5-3.3,0.7-4.9c1.5-7.8,1.9-15.8,2.2-22.3
	c0.1-1.6,0.1-3.1,0.2-4.6c0.5-5.9,0.3-10.3,0.1-11.9l0.3-0.3l-0.5-0.6c0,0-3.6-4-7.2-7.7c-3-3.1-6-6.1-6.9-7c0-1-0.2-3.4-0.8-6.5
	l-2.3-14.8c-0.3-2.4-0.9-4.7-1.4-6.8l-3.9-15.1H632c-0.1-0.1-0.3-0.2-0.5-0.3l0,0l0,0c-1.5-0.9-4.4-2.8-7.7-4.4l-0.7-0.3l-2.8-7.7
	c-1.8-5.7-4.3-10.8-6.5-15.3c-0.9-1.7-1.7-3.5-2.6-5.3l-2.2-4.6c-0.6-1.1-1.2-2.2-1.9-3.2l-9.1-14.9l-11.5-15.5l-4.6,3.4
	c-4.5-5.3-9.2-10.3-13-14.4l-1.8-1.9l-7.2-6.6c0.2-1.6,0.7-7,1-12.6l3.6,3.3l1.5-1.7l-4.1-3.7L561,128c0-1.5,0-2.9,0-4.1
	c0-0.7,0-1.4,0-2.1l-0.1-4.5l-7-5.3c-0.7-0.5-1.4-1-2.2-1.6c-1.4-1.1-3-2.3-4.8-3.4l-16.8-10.2c-1.8-1-3.6-1.8-5.3-2.6
	c-0.8-0.4-1.7-0.8-2.4-1.2l-7.8-3.8l-3.1,0.9c-0.5,0.2-1.1,0.3-1.7,0.5c-1.3,0.4-2.9,0.8-4.5,1.4l-8.4,3.2l-6.8-2.5
	c-3.7-1.6-8.6-2.8-13.8-4.1l-10.9-2.8c-1.8-0.5-3.6-0.7-5.2-1c-0.9-0.1-1.7-0.2-2.5-0.4l-7.2-1.1l-6.4-7.5c-1.3-1.5-1.6-1.8-2-1.7
	l-8.8-0.5c-1.5,0-3.1-0.1-4.8-0.2c-4.6-0.3-9.8-0.6-15-0.1L403,73.8c-3,0.1-6.5,0.3-9.3,0.8l-8.6,1.3l-6.4-4l-4.8-2.8l-2.4-1.3
	l-21.1,5.4l-16.6,6.1c-3.8,1.2-7.4,3-10.8,4.6c-0.8,0.4-1.6,0.8-2.4,1.1l-11.3,5.5c-10.8,6.2-10.9,6.6-10.9,6.7s-1.7,5.1-3.2,9.9
	c-0.9,2.8-1.5,5.1-1.9,6.9l-0.6,2.9l-5.2,3.9c-0.9,0.7-1.9,1.4-2.9,2.2c-2.8,2.1-6,4.4-8.8,7.2l-11.1,10.1c-1,0.9-1.9,1.9-2.5,2.6
	c-0.3,0.4-0.6,0.7-0.9,1l-1.5,1.6v0.9c-0.2,0.2-0.4,0.4-0.6,0.6l0.6,0.5v7.9l0.2,8.9c-0.2,0.2-0.5,0.5-0.8,1l-0.3,0.4l-4.6-3.4
	l-9.7,13l-10.9,17.4c-0.6,1-1.3,2.1-2,3.5l-2.2,4.5c-0.8,1.7-1.6,3.4-2.5,5.2c-2.2,4.5-4.7,9.5-6.4,14.9l-4,10.9
	c-1,2.9-1.7,5.7-2.4,8.4c-0.3,1.3-0.6,2.6-1,3.8c-1.2,4.2-2.2,8.6-3,12.9c-1.5,0.8-3.1,1.6-4.7,2.5l0.5-3.1c0.1-0.5,0.1-1,0.2-1.4
	l-2.2-0.4c-0.1,0.5-0.2,1-0.2,1.5l-0.7,4.8c-4.7,2.6-8.9,5.1-9,5.2l-0.3,0.2l-0.1,0.4c0,0-0.6,3.4-1.2,8.4l-0.9,18.3
	c-0.1,1.4-0.2,2.7-0.2,4.1c0,2,0.1,3.9,0.2,5.8l0.9,17.2l0.2,0.2c0,0,0.8,0.9,2.2,2.1l4.9,4.3l6.9,5.7l1.1,7.2
	c0.5,2.9,1.4,6.3,2.4,9.9c0.5,2.1,1.1,4.2,1.6,6.3c1,4.7,2.6,9,4,12.9c0.4,1.1,0.8,2.1,1.1,3l2.5,6.8l-0.7,1.9
	c-0.4,1-0.9,2.3-1.2,3.5l-1.8,6l4.1,8.4c0.4,0.8,0.8,1.7,1.3,2.6c0.8,1.7,1.7,3.7,2.9,5.6l5.5,9c0.7,1.1,1.3,2.2,2,3.2
	c1.2,2,2.4,4,3.7,5.8l10.7,14.3l-0.1,2.2l0.3,13.4l8.5,9.3l9.3,8.4c0.9,0.8,1.9,1.7,2.8,2.6c2.5,2.3,5.2,4.7,8.1,6.8l2.5,1.9
	c7.1,5.4,13.8,10.4,19.6,13.6l10.7,6.5h0.3c0.1,0,1.3-0.2,3.3-0.7l7.1-1.8c4.3-1.1,8.5-2.3,9.6-2.6l5.9,2.8c2.5,1,5.5,2.1,8.7,3.3
	c1.8,0.6,3.6,1.3,5.4,2c0.9,0.3,1.8,0.7,2.7,1c1.6,0.6,3.3,1.2,4.9,1.7l13.7,3.5l0.8-0.4l1.3,0.3l0.3-1.2l6.2-3.4l7.7-5.1l5.2,0.8
	c1.1,0.1,2.2,0.3,3.5,0.5c2.6,0.4,5.6,1,8.6,0.9l17.6,0.9v-0.9v0.9l20.7-1.1c2.4-0.3,4.8-0.7,7.3-1.1c1.5-0.2,3-0.5,4.6-0.7
	c1.4-0.3,2.9-0.5,4.3-0.7c2.5-0.3,5.2-0.7,7.6-1.4l17.4-4.5l2.2-0.8c1.3,0.9,5.7,3.9,10.3,6.8c-1.7,0.6-3.5,1.2-5.2,1.8l0.7,2.2
	c2.3-0.8,4.6-1.6,6.9-2.5c4,2.5,7.7,4.6,9,5.3l0.4,0.2l2.6-0.9c0.9-0.4,2-0.9,3.2-1.5c0.7-0.4,1.5-0.7,2.3-1.1
	c1.5-0.7,3.2-1.6,5-2.4c3.5-1.7,7.6-3.6,11.5-5.7l15.7-9.5c1.5-0.8,2.7-1.8,3.7-2.5c0.5-0.4,0.9-0.7,1.3-1L554.3,483.7z
	 M420.6,492.4l-17-0.9c-1.1,0-2.2-0.1-3.2-0.2l-6.1-0.9c-11.9-1.3-36.2-5.7-65.5-21c-2-1.1-3.9-2.3-5.9-3.5
	c-1.2-0.7-2.3-1.4-3.4-2.1c-1.2-0.7-2.4-1.5-3.6-2.2c-2.1-1.3-4.1-2.4-6-3.9c-1.8-1.4-3.7-2.8-5.6-4.2c-4.4-3.3-9-6.7-13.3-10.8
	c-7-5.9-13.9-13.1-20.9-21.7l0.1-0.1l-10.7-14.3l-8.9-14.6c-0.4-0.6-0.8-1.3-1-1.6l-2-4.2c-0.9-1.9-1.8-3.8-2.8-5.7
	c-2-4-4-8.2-5.5-12.9l-3.9-10.7c-0.7-1.9-1.2-4.2-1.8-6.5c-0.4-1.5-0.7-3-1.2-4.6c-4.5-15.8-5.7-33.9-6.2-48
	c0.5-14.1,1.7-32.2,6.2-48.1c0.4-1.5,0.8-3,1.1-4.5c0.6-2.4,1.1-4.6,1.8-6.4l4.1-11.3c1.4-4.3,3.4-8.5,5.4-12.5
	c1-1.9,1.9-3.9,2.7-5.5l1.9-4c0.4-0.7,0.8-1.3,1.1-1.9l7.6-12.5l12-16.5l-0.1-0.1c7-8.7,13.9-15.9,21-21.9c4.1-4,8.7-7.4,13.1-10.7
	c1.9-1.4,3.8-2.8,5.6-4.2c1.8-1.4,3.8-2.6,6-3.9c1.2-0.7,2.4-1.4,3.5-2.1c1.2-0.7,2.4-1.4,3.5-2.1c2-1.2,3.9-2.4,5.9-3.5
	c29.3-15.3,53.6-19.8,65.6-21l5.8-0.9c1.2-0.1,2.3-0.2,3.3-0.2l17-0.9l17,0.9c1.1,0.1,2.2,0.1,3.2,0.2l6,0.9
	c11.9,1.3,36.2,5.7,65.5,21c2,1.1,3.9,2.3,5.9,3.5c1.2,0.7,2.3,1.4,3.4,2.1c1.2,0.7,2.4,1.5,3.6,2.2c2.1,1.2,4.1,2.4,6,3.9
	c1.8,1.4,3.7,2.8,5.6,4.2c4.4,3.3,9.1,6.7,13.3,10.8c7,5.9,13.9,13.1,20.9,21.7l-0.1,0.1l10.7,14.3l8.9,14.6c0.4,0.6,0.8,1.3,1,1.7
	l2,4.1c0.9,1.9,1.8,3.8,2.8,5.7c2,4,4,8.2,5.5,12.9l3.9,10.7c0.7,1.9,1.2,4.2,1.8,6.5c0.4,1.5,0.7,3,1.2,4.5
	c4.5,15.8,5.7,33.9,6.2,48c-0.5,14.1-1.7,32.2-6.2,48.1c-0.4,1.5-0.8,3-1.1,4.5c-0.6,2.3-1.1,4.6-1.8,6.4l-4.1,11.3
	c-1.4,4.3-3.4,8.5-5.4,12.5c-1,1.9-1.9,3.9-2.7,5.5l-1.9,4c-0.4,0.7-0.8,1.3-1.1,2l-7.6,12.5l-12,16.5l0.1,0.1
	c-7,8.7-13.9,15.9-21,21.9c-4.1,4-8.7,7.4-13.1,10.7c-1.9,1.4-3.8,2.8-5.6,4.2c-1.8,1.5-3.9,2.6-6,3.9c-1.2,0.7-2.4,1.4-3.5,2.1
	c-1.2,0.7-2.4,1.4-3.5,2.1c-2,1.2-3.9,2.4-5.9,3.5c-29.3,15.3-53.6,19.7-65.6,21l-5.8,0.9c-1.2,0.1-2.3,0.2-3.3,0.2L420.6,492.4z
	 M260.7,166.7c0.3-0.4,0.5-0.6,0.6-0.8h0.5l-0.2-10.2v-7.6c3.4-3.9,7.2-7.4,11.5-11.3l-0.8-0.9l4.8-4.4c0.5-0.5,1-0.9,1.5-1.4
	l0.8,0.9l0.3-0.3c1-0.8,1.9-1.6,2.9-2.4l-0.7-0.9c1.3-1,2.6-2,3.9-2.9c1.1-0.8,2.1-1.5,3-2.2l0.6,0.8c3.4-2.5,6.9-5,10.4-7.3
	l-1.2-1.9c-1.2,0.8-2.5,1.7-3.7,2.5l0.4-1.8c0.4-1.7,1-4.1,1.8-6.7c1.2-4,2.6-8.1,3.1-9.5c0.9-0.6,4.7-2.9,10.2-6l11.3-5.4
	c0.8-0.4,1.6-0.8,2.4-1.2c3.4-1.7,6.9-3.4,10.7-4.6l16.6-6.1l20.4-5.2l1.8,0.9l11.6,7.1l9.2-1.4c2.7-0.5,6.1-0.7,9-0.8l10.6-0.5
	c5.1-0.5,10.3-0.2,14.8,0.1c1.7,0.1,3.3,0.2,4.8,0.2l8.7,0.4c0.2,0.2,0.6,0.6,1,1.1l6.8,8l7.8,1.2c0.8,0.1,1.6,0.3,2.5,0.4
	c1.6,0.2,3.3,0.5,5,0.9l10.9,2.8c5.1,1.3,9.9,2.5,13.6,4.1l7.4,2.7l9-3.5c1.5-0.6,3-1,4.3-1.4c0.6-0.2,1.2-0.3,1.7-0.5l2.5-0.7
	l7.2,3.5c0.8,0.4,1.6,0.8,2.4,1.2c1.6,0.8,3.4,1.6,5.2,2.6l16.8,10.2c1.7,1,3.2,2.2,4.7,3.3c0.8,0.6,1.5,1.2,2.2,1.7l6.3,4.7
	l0.1,3.6c0,0.6,0,1.3,0,2.1c0,0.9,0,1.8,0,2.8l-3.2-2.5l-1.4,1.8l4.5,3.4c0,0.4,0,0.9-0.1,1.3c-0.3,6.3-0.9,12.3-1,13.1v0.4l7.8,7.1
	l1.7,1.8c3.8,4.1,8.4,9.1,12.8,14.3l-5.9,4.4c-7.2-8.9-14.3-16.4-21.5-22.4c-4.3-4.3-9.1-7.8-13.7-11.2c-1.9-1.4-3.7-2.7-5.5-4.1
	c-2.1-1.7-4.4-3-6.5-4.3c-1.1-0.7-2.3-1.3-3.5-2.1c-1.2-0.7-2.3-1.4-3.4-2.1c-2.1-1.3-4.1-2.5-6.2-3.7c-30-15.7-55-20.2-67.2-21.5
	l-6.1-0.9c-1.2-0.1-2.4-0.2-3.6-0.2l-17.1-0.9l-0.1,2.5l-0.1-2.5l-17.1,0.9c-1.1,0.1-2.4,0.1-3.7,0.2l-5.8,0.9
	c-12.2,1.3-37.3,5.8-67.3,21.6c-2.1,1.1-4.1,2.4-6.2,3.6c-1.1,0.7-2.3,1.4-3.5,2.1c-1.1,0.7-2.2,1.4-3.4,2c-2.2,1.3-4.4,2.6-6.5,4.3
	c-1.8,1.4-3.6,2.7-5.5,4.1c-4.6,3.4-9.4,6.9-13.5,11c-7.2,6.1-14.4,13.6-21.6,22.5l-5.9-4.4L260.7,166.7z M549.8,484.9
	c-1,0.8-2.1,1.6-3.5,2.4l-15.7,9.5c-3.8,2.1-7.8,4-11.4,5.7c-1.8,0.9-3.5,1.7-5,2.4c-0.8,0.4-1.6,0.8-2.3,1.1
	c-1.2,0.6-2.3,1.1-3.1,1.5l-1.8,0.6c-1.3-0.7-4.2-2.4-7.5-4.4c1.1-0.4,2.1-0.8,3.2-1.2l-0.8-2.1c-1.6,0.6-3.2,1.2-4.7,1.8
	c-0.4-0.2-0.7-0.5-1.1-0.7c-5.5-3.4-10.6-7-10.6-7l-0.4-0.3l-3,1.1l-17.3,4.5c-2.3,0.7-4.7,1-7.3,1.4c-1.5,0.2-2.9,0.4-4.4,0.7
	c-1.5,0.2-3,0.5-4.6,0.7c-2.5,0.4-4.9,0.8-7.2,1.1l-20.6,1l-17.6-0.9c-2.9,0-5.8-0.5-8.3-0.9c-1.3-0.2-2.5-0.4-3.6-0.5l-5.8-0.9
	l-8.2,5.4l-6.5,3.5l-10.4-2.7c-1.3-0.3-2.9-0.7-4.6-1.3l-0.4,1.1c-1.3-0.4-2.5-0.9-3.9-1.4c-0.9-0.3-1.8-0.7-2.7-1
	c-0.5-0.2-1-0.4-1.5-0.5l0.4-1.1l-0.4-0.2c-1.2-0.5-2.4-0.9-3.6-1.3l-0.4,1.1c-3-1.1-5.7-2.1-8-3l0.4-1.1c-1.9-0.8-3.6-1.6-5.2-2.4
	l-6.4-3.1l-1,2.1l3.5,1.7c-1.8,0.5-5.2,1.5-8.6,2.4l-7.1,1.8c-1.4,0.3-2.3,0.5-2.8,0.6l-10.2-6.2c-5.7-3.1-12.4-8.1-19.4-13.4
	l-2.5-1.9c-2.9-2-5.5-4.4-7.9-6.6c-1-0.9-1.9-1.8-2.9-2.6l-9.2-8.4l-8-8.8l-0.2-7.4v-5.2l0.1-2.8L236.7,424
	c-1.3-1.7-2.4-3.6-3.6-5.6c-0.7-1.1-1.3-2.2-2-3.3l-5.5-9.1c-1.2-1.8-2-3.6-2.8-5.4c-0.4-1-0.9-1.9-1.3-2.7l-3.8-7.8l1.6-5.3
	c0.3-1.1,0.8-2.4,1.2-3.3l1-2.5l-2.7-7.4c-0.3-1-0.7-2-1.1-3.1c-1.4-3.8-3-8.1-4-12.7c-0.5-2.2-1.1-4.3-1.6-6.4
	c-0.9-3.6-1.8-6.9-2.3-9.7l-1.2-7.8l-7.4-6.1l-4.9-4.3c-0.9-0.8-1.5-1.4-1.9-1.7l-0.8-16.6c-0.2-3.1-0.3-6.4-0.1-9.7l0.9-18.3
	c0.5-3.9,0.9-6.8,1.1-7.8c1-0.6,4-2.4,7.4-4.3l-0.6,4.2l2.2,0.3l0.9-5.9c0.4-0.2,0.8-0.4,1.1-0.6c1.2-0.6,2.4-1.3,3.5-1.8
	c-2.4,13.5-3.2,27-3.6,38.1v0.4v0.3c0.5,15.3,1.8,35.1,7,53.1c0.4,1.3,0.7,2.6,1,3.9c0.7,2.7,1.4,5.5,2.4,8.5l3.8,10.4
	c1.8,5.7,4.3,10.8,6.5,15.3c0.9,1.8,1.7,3.5,2.6,5.4l2.2,4.6c0.6,1.1,1.2,2.2,1.9,3.2l9.1,14.9l11.5,15.5l11.9-8.9
	c7.2,8.9,14.3,16.4,21.5,22.4c4.3,4.3,9.1,7.8,13.7,11.2c1.9,1.4,3.7,2.7,5.5,4.1c2.1,1.7,4.4,3,6.5,4.3c1.1,0.7,2.3,1.3,3.5,2.1
	c1.2,0.7,2.3,1.4,3.4,2.1c2.1,1.3,4.1,2.5,6.2,3.7c30,15.7,55,20.3,67.2,21.5l6.1,0.9c1.2,0.1,2.5,0.2,3.6,0.2l17.1,0.9l0.1-2.5
	l0.1,2.5l17.1-0.9c1.2,0,2.4-0.1,3.7-0.2l5.8-0.9c12.2-1.3,37.3-5.8,67.3-21.6c2.1-1.1,4.1-2.4,6.2-3.6c1.1-0.7,2.3-1.4,3.5-2.1
	c1.1-0.7,2.2-1.4,3.4-2c2.2-1.3,4.4-2.6,6.5-4.3c1.8-1.4,3.6-2.7,5.5-4.1c4.6-3.4,9.4-6.9,13.5-11c7.2-6.1,14.4-13.6,21.6-22.5
	l11.9,8.9l9.7-13l10.9-17.4c0.6-1,1.3-2.1,2-3.5l2.2-4.5c0.8-1.7,1.6-3.4,2.5-5.2c2.2-4.5,4.7-9.5,6.4-14.9l4-11
	c1-2.9,1.7-5.7,2.4-8.4c0.3-1.3,0.6-2.6,1-3.8c5.2-18.1,6.5-37.9,7-53.2v-0.3v-0.4c-0.5-15.3-1.8-35.1-7-53.1
	c-0.4-1.3-0.7-2.6-1-3.9c-0.7-2.7-1.4-5.5-2.4-8.5l-0.1-0.3c2,1.1,3.9,2.2,5.3,3c0.8,2.6,1.5,5.1,2.1,7.6c0.8,2.8,1.6,5.7,2.3,8.8
	l1.1-0.2c0.5,1.8,0.9,3.7,1.1,5.7l0.4,2.7l-1.1,0.2c0.2,1.5,0.4,2.9,0.6,4.2l1.1-0.2l1.2,7.9c0,0.2,0.1,0.4,0.1,0.5l-1.2,0.2
	c0.1,0.5,0.2,1.1,0.3,1.5c0.4,2.5,0.4,4.7,0.5,6.4c0,1,0.1,1.8,0.1,2.5l0.1,2.3l2.3-0.1l-0.1-2.3c-0.1-0.7-0.1-1.5-0.1-2.4
	c0-0.1,0-0.3,0-0.4c1.3,1.3,3.7,3.7,6.2,6.3c3,3.2,6.1,6.6,6.9,7.5c0.1,1.5,0.3,5.8-0.1,11.8c-0.1,1.4-0.2,3-0.2,4.6
	c-0.3,6.4-0.7,14.3-2.1,22c-0.3,1.6-0.5,3.3-0.8,4.9c-0.5,3.2-0.9,6.3-1.5,9.2l-5.3,20.7c-0.4,1.4-0.8,2.4-0.9,2.8l-6.6,3.9
	l-7.1,3.9l-0.9,2.6c-0.2,0.5-0.4,1.1-0.7,1.8c-0.4,1.3-0.9,2.7-1.7,4.3l-8.6,17.8c-2.4,4.1-4.9,8.2-7.1,11.8
	c-1.1,1.9-2.2,3.6-3.1,5.2c-1,1.7-2,3.1-2.9,4.2c-0.3,0.4-0.5,0.7-0.8,1l-1.3,1.7l-5.5,1.2l-6.1,1.2l-1.4,1.9
	c-0.3,0.4-0.6,0.8-0.9,1.3c-0.7,0.9-1.4,1.9-2.4,3l-11.2,12.3c-2.7,2.8-5.6,5.4-8.2,7.8c-1.4,1.3-2.8,2.5-3.9,3.5l-4.1,3.7
	c-0.9,0.8-1.4,1.2-1.5,1.2l-0.3,0.2l-1.7,9.3l-1.9,8.8l-1.5,1.1C550.8,484.1,550.3,484.5,549.8,484.9z"/>
<path d="M596.9,481.1l19.5-20.8l12.5-16.6c2.1-2.6,3.8-5.4,5.4-8l6.5-10.7c12.7-21.9,23.2-48.9,28.7-74.4c1.3-7,2.2-13.3,3-18.3
	c0.4-2.6,0.7-5,1.1-7.4c0.3-2.2,0.3-4.1,0.4-5.7c0-0.6,0-1.2,0.1-1.9l0.1-2.5l-11-0.6c1.8-26.6-0.9-48.9-3.8-64
	c-4.8-21.6-11.2-41-18-54.7c-1.1-2.3-2.2-4.5-3.1-6.4c-1.6-3.3-2.9-6-4-8.2l-3-4.8l-8.1-13.4l-14.5-19.5c-0.9-1.1-2-2.2-3-3.3
	l-12.1-13.3c-2.5-2.4-5.1-4.8-7.8-7.3c-1.6-1.4-3.1-2.8-4.8-4.3c-11.8-10.3-29.9-24-53.1-35.5l4.7-9.8l-10.2-4.9
	c-1.2-0.6-2.4-1.2-3.9-1.7L499,56c-14.7-4.6-44.4-12.4-78.5-12.5c-34,0.1-63.7,7.9-78.8,12.6L322.5,63c-1.3,0.5-2.6,1.1-3.7,1.7
	l-10.2,4.9l4.7,9.8c-23.2,11.5-41.3,25.2-53.1,35.6c-1.6,1.5-3.2,2.9-4.7,4.3c-2.7,2.5-5.4,4.8-7.9,7.3l-12,13.2
	c-1,1.1-2,2.2-3.1,3.4l-13.8,18.5l-8.7,14.4l-3,4.9c-1.1,2.1-2.4,4.8-4,8.1c-0.9,1.9-1.9,4.1-3.1,6.4c-6.8,13.7-13.2,33.1-18,54.8
	c-2.3,11.7-4.4,27.8-4.4,47c0,5.4,0.2,11.1,0.6,16.9l-11,0.6l0.1,2.7c0,0.5,0.1,1,0.1,1.7c0.1,1.6,0.1,3.5,0.5,6.1
	c0.3,2.1,0.7,4.4,1.1,7.1c0.7,5.1,1.7,11.4,3,18.5c5.5,25.2,15.9,52.2,28.7,74.3l6.4,10.5c1.6,2.7,3.3,5.4,5.2,7.8l12.2,16.3
	l15.5,17.1l10.4,9.6c6.5,6.3,12.9,11.1,17.5,14.5l8.6,6.4c1.8,1.4,2.8,2,2.8,2l5.8-9.6c18.6,12.6,38.2,22.3,57.3,28.4
	c4.4,1.8,8.8,2.9,13.1,4l3.5,0.9c1.9,0.4,3.7,0.9,5.5,1.4c3.3,0.9,6.4,1.7,9.6,2.2l13.4,2c1.3,0.2,2.6,0.4,3.9,0.6
	c2.7,0.5,5.2,0.9,7.6,0.8l21.7,1.1l0.1-1.9l0.1,1.9l21.6-1.1c2.5,0,5-0.4,7.7-0.8c1.3-0.2,2.6-0.4,4-0.6l13.3-2
	c3.1-0.5,6.3-1.3,9.6-2.2c1.8-0.5,3.6-1,5.5-1.4l3.5-0.9c4.3-1.1,8.7-2.2,12.9-4c17.9-5.7,36.2-14.5,53.7-25.9l5.7,0.6l4,6.3
	c0.2-0.1,1.2-0.7,2.5-1.8l8.7-6.5c4.6-3.4,11-8.1,17.4-14.3L596.9,481.1z M497.5,524.8c-4.2,1.7-8.4,2.8-12.5,3.8l-3.5,0.9
	c-1.9,0.5-3.8,1-5.6,1.5c-3.2,0.9-6.2,1.7-9.2,2.1l-13.3,2c-1.4,0.2-2.7,0.4-4,0.6c-2.5,0.4-4.9,0.8-7.2,0.8l-21.6,1.1l-21.7-1.1
	c-2.2,0-4.6-0.4-7.1-0.8c-1.3-0.2-2.6-0.4-4-0.6l-13.3-2c-2.9-0.5-6-1.3-9.2-2.1c-1.8-0.5-3.7-1-5.6-1.4l-3.5-0.9
	c-4.1-1-8.4-2.1-12.7-3.9c-18.9-6-38.3-15.6-56.6-28.1l0,0c-0.1-0.1-0.6-0.4-1.5-1.1l-8.8-6.6c-4.5-3.4-10.2-7.5-16.2-13.4l-8.1-7.3
	L236,450.6l-12.2-16.2c-1.5-1.8-2.8-4-4.2-6.4l-6.4-10.5c-12-20.6-21.8-46.1-26.9-69.6c-1.2-6.7-2.1-12.6-2.9-17.8
	c-0.4-2.4-0.7-4.6-1-6.3c-0.1-1.2-0.2-2.3-0.3-3.5c0-0.6-0.1-1.2-0.1-1.8c0-0.9-0.1-1.6-0.1-2l-0.1-2.5h-0.2
	c-1.7-26.2,0.9-48.2,3.8-62.9c4.7-21.3,11-40.4,17.7-53.9c1.1-2.3,2.2-4.5,3.1-6.4c1.5-3.2,2.8-5.9,3.9-7.9l3-4.9l8.2-13.4l14.1-19
	c0.9-1.1,1.9-2.2,2.9-3.3l12-13.2c2.4-2.4,5-4.7,7.7-7.2c1.6-1.4,3.2-2.8,4.7-4.3c11.6-10.1,29.4-23.6,52.3-35l0.1,0.3l8.6-4.1
	c0.6-0.3,1.2-0.5,1.8-0.8c0.8-0.4,1.6-0.8,2.4-1.1l18.9-6.9c23.6-7.4,50.6-11.7,74-11.8c23.4,0.1,50.4,4.4,73.7,11.7l19.1,7
	c0.9,0.4,1.7,0.8,2.5,1.1c0.6,0.3,1.2,0.6,1.6,0.8l8.7,4.2l0.1-0.3c22.9,11.4,40.6,24.8,52.2,35c1.6,1.5,3.2,2.9,4.8,4.3
	c2.7,2.4,5.3,4.8,7.6,7.1l12.1,13.3c1,1.1,2,2.2,2.8,3.2l13.6,18.2l8.7,14.4l2.9,4.8c1.1,2,2.4,4.7,3.9,7.9c0.9,2,2,4.1,3.1,6.4
	c6.7,13.4,13,32.6,17.7,53.8c2.9,14.8,5.5,36.8,3.8,63h-0.2l-0.1,2.3c0,0.6-0.1,1.4-0.1,2.2c0,0.5,0,1.1-0.1,1.7
	c-0.1,1.2-0.2,2.3-0.3,3.5c-0.3,1.9-0.6,4-1,6.3c-0.8,5.2-1.6,11.1-2.8,17.6c-5.2,23.7-15,49.2-26.9,69.7l-6.5,10.6
	c-1.4,2.3-2.7,4.5-4.4,6.5l-12,16l-12.5,13.8l-12.1,11.5c-5.8,5.6-11.5,9.8-16,13.2l-8.9,6.6c-0.8,0.6-1.3,1-1.4,1v0.1
	C535.9,509.1,516.6,518.7,497.5,524.8z"/>
<path d="M451.8,479.7l0.6,3.7l3.4-0.5c1.5-0.2,3.5-0.5,5.6-1.1l11-2.8c2.5-0.6,5.3-1.3,7.8-2.4l9.6-3.5l16.3-7.4l-1.6-3.3
	c9.7-5,19.3-11.1,28.5-18.2l2.2,3l2-1.5c0.3-0.2,0.6-0.5,1-0.8c1.1-0.8,2.7-1.9,4.1-3.3l8.2-7.4c2-1.8,4.2-3.8,6-6
	c1.4-1.6,2.8-3.1,4.2-4.6c3.3-3.6,6.4-7,8.5-10.1l5.2-6.9l-3-2.2c3.3-4.6,6.3-9.4,9.1-14.3s5.4-9.9,7.8-15l3.3,1.6l1.4-2.9
	c0.7-1.4,1.6-3.3,2.3-5.5l3.6-9.9c1-2.6,2.1-5.5,2.7-8.6c0.5-2.2,1.1-4.4,1.7-6.5c1.2-4.5,2.4-8.8,2.7-12.4l1.3-8.5l-3.7-0.6
	c1.6-12.3,1.8-23.8,1.3-33.8l3.7-0.2l-0.5-9c-0.5-3.5-1.1-7.8-1.8-12.4l-1-6.5l-0.1-0.5c-0.6-2.4-1.2-4.8-1.8-7.1
	c-1.1-4.2-2.1-8.2-3.1-11.7l-3-8.1l-3.4,1.3c-1.8-5.1-3.7-9.6-5.7-13.6c-0.8-1.7-1.6-3.3-2.3-4.8c-1.2-2.5-2.2-4.6-3.1-6.3l-2.2-3.7
	l-1.9,1.1l1.9-1.1l-6.8-11.2l-9.4-12.6l-1.7-2l2.9-2.6l-7.7-8.5c-1.3-1.4-2.7-3-4.4-4.7l-7.4-6.7c-4-3.9-8.5-7.2-12.1-9.9
	c-1.1-0.8-2.2-1.7-3.3-2.5c-0.7-0.5-1.4-1-2-1.5c-1.3-1-2.4-1.8-3.4-2.4l-2-1.2l-2,3.3c-8.5-5.6-18.5-11.1-29.9-15.8l1.3-3.6l-8.2-3
	c-0.8-0.3-1.7-0.6-2.6-0.9c-1.8-0.7-3.8-1.4-6.2-2.2l-9.6-2.5c-5.6-1.7-11.3-2.5-15.9-3.2l-9.9-1.5c-1.8-0.2-2.9-0.2-2.9-0.2v3.7
	c-5.6-0.5-11.2-0.8-16.8-0.8c-5.6,0-11.2,0.3-16.8,0.8V110c0,0-1,0-3.1,0.2l-9.6,1.5c-4.6,0.7-10.3,1.5-15.7,3.2l-10.1,2.6
	c-2.1,0.7-4.1,1.4-5.9,2.1c-0.9,0.3-1.8,0.7-2.7,1l-8.1,3l1.3,3.6c-11.3,4.7-21.3,10.3-29.9,15.8l-2-3.3l-2,1.2
	c-0.9,0.6-2.1,1.4-3.4,2.4c-0.6,0.5-1.3,1-2.1,1.6c-1,0.8-2.1,1.6-3.2,2.4c-3.6,2.7-8.1,6-11.9,9.7l-7.7,7c-1.5,1.6-2.9,3.1-4.2,4.5
	l-7.7,8.5l2.8,2.5l-0.7,0.8l-10.5,14l-6.6,10.9l1.6,1l-1.6-1l-2.3,3.7c-0.8,1.6-1.8,3.7-3,6.2c-0.7,1.5-1.5,3.1-2.3,4.8
	c-2,4-3.9,8.5-5.7,13.6l-3.4-1.3l-3.1,8.4c-1,3.2-2,7.2-3,11.4c-0.6,2.3-1.2,4.7-1.8,7.1l-1.1,7c-0.7,4.6-1.4,8.9-1.9,12.8l-0.4,8.6
	l3.7,0.2c-0.1,3-0.2,6.1-0.2,9.3c0,7.6,0.5,15.8,1.6,24.5l-3.7,0.6l1.3,8.2c0.4,3.9,1.5,8.2,2.7,12.7c0.6,2.1,1.2,4.3,1.6,6.4
	c0.7,3.1,1.8,6.1,2.7,8.7l3.6,9.8c0.8,2.4,1.7,4.3,2.4,5.6l1.4,2.9l3.3-1.6c2.4,5.1,5,10.1,7.8,15s5.9,9.6,9.1,14.3l-3,2.2l5,6.7
	c2.2,3.3,5.3,6.7,8.6,10.3c1.4,1.5,2.8,3,4.1,4.5c2,2.3,4.2,4.3,6.1,6.1l8,7.3c1.6,1.5,3.1,2.6,4.2,3.5c0.4,0.3,0.7,0.5,1.2,0.9
	l1.9,1.4l2.2-3c9.2,7,18.8,13.1,28.5,18.2l-1.6,3.3l10.6,5.1l15.1,5.7c2.7,1.1,5.5,1.8,8,2.5l10.8,2.8c2.3,0.7,4.3,1,5.8,1.2
	l3.4,0.5l0.6-3.7c1.1,0.2,2.2,0.3,3.2,0.5c4.1,0.7,8,1.3,11.4,1.5l16.5,0.8l0.1-1.2l0.1,1.2l16.5-0.8c3.4-0.2,7.3-0.8,11.4-1.5
	C449.6,480.1,450.7,479.9,451.8,479.7z M437.1,479.2l-16.4,0.8l-16.4-0.8c-3.3-0.2-6.9-0.8-11.1-1.5c-1.1-0.2-2.1-0.3-3.2-0.5
	l0.6-3.7l-3.5-0.5c-1.3-0.2-2.8-0.4-4.5-0.9l-11-2.8c-2.3-0.6-4.5-1.1-6.8-2.1l-12.8-4.7l-12.2-5.8l-1.7,3.5
	c-9.6-5-19.1-11-28.1-17.9l2.2-3l-1.8-1.3c-0.4-0.3-0.9-0.7-1.4-1.1c-1-0.7-2.1-1.5-3.2-2.7l-8.2-7.4c-1.8-1.6-3.7-3.3-5.2-5.2
	c-1.4-1.6-2.9-3.2-4.3-4.8c-3-3.3-5.9-6.4-7.8-9.3l-5.2-6.9l-3,2.2c-3.2-4.5-6.2-9.2-9-14s-5.4-9.8-7.7-14.8l3.4-1.6l-1.4-2.9
	c-0.6-1.2-1.3-2.6-1.9-4.5l-3.7-10c-0.9-2.4-1.8-4.9-2.3-7.4c-0.5-2.3-1.2-4.6-1.8-6.8c-1.1-4.1-2.1-8-2.5-11.3l-1.3-8.5l-3.7,0.6
	c-1.5-12.2-1.8-23.4-1.3-33.3l3.8,0.2l0.4-8.2c0.5-3.5,1.1-7.7,1.8-12.2l1-6.3c0.6-2.3,1.2-4.7,1.8-6.9c1-4.1,2-7.9,2.8-10.8l3-8.1
	l-3.6-1.3c1.8-5,3.7-9.5,5.6-13.4c0.9-1.8,1.6-3.4,2.3-4.8c1.2-2.5,2.2-4.5,3-6l2.2-3.7l0,0l6.7-11l9.4-12.6l1.6-1.8l2.7,2.4
	l7.7-8.5c1.2-1.3,2.5-2.8,3.7-4l7.7-7c3.5-3.4,7.4-6.4,11-8.9c1.2-0.9,2.3-1.7,3.3-2.5c0.8-0.6,1.5-1.1,2.2-1.6
	c1-0.7,1.8-1.4,2.5-1.8l2-1.2l-1.9-3.1c8.4-5.5,18.2-11,29.4-15.6l1.3,3.4l8.1-2.9c0.9-0.3,1.8-0.7,2.8-1c1.7-0.6,3.5-1.3,5.1-1.8
	l10-2.6c4.9-1.5,10-2.2,14.5-2.9c1.2-0.2,2.4-0.3,3.5-0.5l6-0.9c1.1-0.1,1.8-0.1,1.9-0.1v-3.8c5.6-0.5,11.2-0.8,16.8-0.8
	c5.6,0,11.2,0.3,16.8,0.8v3.8c0.1,0,0.8,0,1.7,0.1l6.1,0.9c1.1,0.2,2.3,0.4,3.5,0.5c4.5,0.7,9.6,1.4,14.7,3l9.6,2.5
	c1.9,0.6,3.7,1.3,5.4,1.9c1,0.4,1.9,0.7,2.7,1l8.1,3l1.3-3.4c11.2,4.6,21,10.1,29.4,15.6l-1.9,3.1l2,1.2c0.7,0.4,1.5,1.1,2.5,1.8
	c0.7,0.5,1.4,1.1,2.1,1.6c1,0.8,2.2,1.6,3.4,2.5c3.5,2.6,7.5,5.5,11.1,9.1l7.3,6.6c1.4,1.4,2.7,2.9,3.9,4.2l7.8,8.5l2.7-2.5l0.6,0.6
	l10.3,13.8l6.6,10.9l0,0l2.2,3.6c0.8,1.6,1.8,3.6,3,6.1c0.7,1.5,1.5,3.1,2.3,4.8c1.9,3.9,3.8,8.4,5.6,13.4l-3.6,1.3l2.9,7.8
	c0.9,3.1,1.9,7,2.9,11.1c0.6,2.3,1.2,4.6,1.8,6.9l1,6.3c0.7,4.5,1.3,8.7,1.8,11.8l0.4,8.6l3.8-0.2c0.5,9.9,0.2,21.1-1.3,33.3
	l-3.6-0.6l-1.3,8.8c-0.3,3-1.3,6.9-2.4,11c-0.6,2.2-1.2,4.5-1.8,6.9c-0.5,2.4-1.4,4.9-2.3,7.3l-3.7,10.2c-0.6,1.7-1.2,3.1-1.8,4.4
	l-1.4,2.9l3.4,1.6c-2.3,5.1-4.9,10-7.7,14.8s-5.8,9.5-9,14l-3-2.2l-5.3,7.1c-1.8,2.7-4.6,5.8-7.7,9.1c-1.4,1.5-2.9,3.1-4.4,4.9
	s-3.4,3.5-5.1,5.1l-8.3,7.6c-1,1-2.1,1.8-3.1,2.5c-0.5,0.4-1,0.7-1.3,0.9l-1.9,1.4l2.2,3c-9,6.9-18.5,12.9-28.1,17.9l-1.7-3.5
	l-11.1,5.4l-14.1,5.2c-2,0.8-4.2,1.4-6.6,2c-0.9,0.2-1.7,0.4-2.5,0.6l-8.8,2.3c-1.6,0.5-3.1,0.7-4.3,0.9l-3.5,0.5l0.6,3.7
	c-1.1,0.2-2.2,0.3-3.2,0.5C444,478.4,440.3,479,437.1,479.2z"/>
<rect x="399.9" y="514.3" transform="matrix(4.888989e-02 -0.9988 0.9988 4.888989e-02 -134.3815 891.7353)" width="2.3" height="4.3"/>
<path d="M377.9,512.1l-0.4,2.2c0.5,0.1,1,0.1,1.5,0.2l11.2,1.7l0.3-2.2l-11.2-1.7C378.8,512.2,378.4,512.2,377.9,512.1z"/>
<path d="M236.8,419.9c2.4,3.6,4.9,7.2,7.4,10.6l1.8-1.4c-2.5-3.4-5-6.9-7.3-10.4L236.8,419.9z"/>
<path d="M291.7,476.8c1.2,0.9,2.3,1.7,3.5,2.6l1.3-1.9c-1.2-0.8-2.3-1.6-3.4-2.5L291.7,476.8z"/>
<path d="M259.8,445.3l-1.7,1.5c4.1,4.6,7.9,8.7,12.1,12.3l1.5-1.7C267.5,453.9,263.8,449.8,259.8,445.3z"/>
<path d="M311.4,486.9c-1.3-0.8-2.7-1.6-4.1-2.5c-1.3-0.8-2.5-1.5-3.8-2.3l-1.2,1.9c1.3,0.8,2.5,1.5,3.8,2.3c1.4,0.8,2.7,1.6,4,2.5
	l4.9,2.9c0.7,0.4,1.4,0.7,2.1,1.1l1-2c-0.7-0.3-1.4-0.7-2-1L311.4,486.9z"/>
<polygon points="276.5,461.7 274.9,463.4 279,467.1 284.9,471.6 286.2,469.8 281.5,466.3 "/>
<path d="M224.9,399.4c2.6,5.1,5.5,10.2,8.4,15l1.9-1.2c-2.9-4.8-5.7-9.8-8.4-14.8L224.9,399.4z"/>
<path d="M219.3,387.8c0.6,1.3,1.2,2.6,1.8,3.9l2.1-1c-0.6-1.3-1.2-2.6-1.8-3.9L219.3,387.8z"/>
<path d="M203,315.6c0-0.9-0.1-1.8-0.1-2.5l-0.1-2.3l-2.3,0.1l0.1,2.3c0.1,0.7,0.1,1.5,0.1,2.4c0.1,1.8,0.1,4.1,0.5,6.7
	c0.1,0.5,0.2,1,0.3,1.5l2.2-0.4c-0.1-0.5-0.2-1.1-0.3-1.5C203.2,319.5,203.1,317.3,203,315.6z"/>
<path d="M251.3,435.7l-1.7,1.4c0.8,1,1.6,1.9,2.5,3l0.3,0.4l1.7-1.6l-0.3-0.3C252.9,437.7,252.1,436.7,251.3,435.7z"/>
<path d="M218,379c-1.6-4-3.1-8-4.4-12l-2.1,0.7c1.3,4,2.9,8.1,4.5,12.1L218,379z"/>
<path d="M205.1,332l-2.2,0.3c0.2,1.4,0.4,2.8,0.7,4.2l2.2-0.4C205.5,334.7,205.3,333.3,205.1,332z"/>
<path d="M209.5,353.3c-0.8-2.8-1.6-5.7-2.3-8.8L205,345c0.7,3.1,1.4,6,2.3,8.9c0.6,2.5,1.4,5.1,2.2,7.7l2.2-0.6
	C210.9,358.4,210.2,355.8,209.5,353.3z"/>
<polygon points="202.1,297.8 202.6,288.9 200.3,288.8 199.9,297.7 201,297.8 199.9,297.9 200.3,306.9 202.6,306.7 "/>
<rect x="199.9" y="277" transform="matrix(4.757368e-02 -0.9989 0.9989 4.757368e-02 -85.3957 466.7443)" width="4.3" height="2.3"/>
<polygon points="252.2,158.7 256.8,153.6 255.1,152.1 251.4,156.2 246.8,162.1 248.6,163.4 "/>
<path d="M228.7,193.4l2.9-4.8c0.8-1.3,1.6-2.7,2.5-4.1c0.8-1.3,1.5-2.5,2.3-3.8l-1.9-1.2c-0.8,1.3-1.5,2.5-2.3,3.8
	c-0.8,1.4-1.6,2.7-2.4,4l-3,4.9c-0.4,0.7-0.7,1.4-1.1,2.1l2,1C228,194.7,228.3,194,228.7,193.4z"/>
<path d="M243.4,170.2l-1.8-1.4c-0.9,1.2-1.7,2.3-2.6,3.5l1.9,1.3C241.7,172.5,242.6,171.4,243.4,170.2z"/>
<path d="M331.6,98.5l-0.9-2.1c-1.3,0.6-2.6,1.2-3.9,1.8l1,2.1C329,99.7,330.3,99.1,331.6,98.5z"/>
<path d="M386.5,82.2l-0.3-2.2c-1.4,0.2-2.8,0.4-4.2,0.7l0.4,2.2C383.7,82.6,385.1,82.4,386.5,82.2z"/>
<path d="M396.5,80.7c2.5-0.4,4.6-0.4,6.4-0.5c0.9,0,1.8-0.1,2.5-0.1l2.3-0.1l-0.1-2.3l-2.3,0.1c-0.7,0.1-1.5,0.1-2.4,0.1
	c-1.8,0.1-4.1,0.1-6.7,0.5c-0.5,0.1-1,0.2-1.5,0.3L395,81C395.5,80.9,396,80.8,396.5,80.7z"/>
<path d="M351.4,90.8l-0.7-2.2c-4,1.4-8.1,2.9-12.1,4.5l0.8,2.1C343.4,93.6,347.4,92.1,351.4,90.8z"/>
<path d="M365.2,86.7c2.8-0.8,5.7-1.6,8.8-2.3l-0.5-2.2c-3.1,0.7-6,1.4-8.9,2.3c-2.5,0.6-5.1,1.4-7.7,2.2l0.7,2.2
	C360.1,88,362.6,87.3,365.2,86.7z"/>
<path d="M215.1,224.3c0.5-1.2,0.9-2.4,1.3-3.6l-2.1-0.8c-0.4,1.2-0.9,2.4-1.3,3.6l-0.2,0.4l2.1,0.8L215.1,224.3z"/>
<path d="M221.8,207.5l3.1-6.4l-2-1l-3,6.3c-0.9,1.6-1.7,3.4-2.5,5.3l2.1,0.9C220.2,210.8,221,209.2,221.8,207.5z"/>
<path d="M210.8,237.3c0.3-1.3,0.7-2.9,1.3-4.6l-2.2-0.7c-0.6,1.9-1,3.5-1.3,4.8l-3,11.8l2.2,0.6L210.8,237.3z"/>
<path d="M320.1,104l-1-2c-5.1,2.6-10.2,5.5-15,8.4l1.2,1.9C310,109.5,315,106.7,320.1,104z"/>
<polygon points="420.6,79.3 429.6,79.8 429.7,77.5 420.7,77.1 420.6,78.2 420.6,77.1 411.6,77.5 411.7,79.8 "/>
<path d="M463.3,83.5l0.4-2.2c-0.5-0.1-1-0.2-1.5-0.2L451,79.4l-0.3,2.2l11.2,1.7C462.4,83.4,462.9,83.5,463.3,83.5z"/>
<rect x="439.1" y="77" transform="matrix(4.889692e-02 -0.9988 0.9988 4.889692e-02 339.6176 514.9781)" width="2.3" height="4.3"/>
<path d="M629.8,227.8c-1.4-4-2.9-8.1-4.5-12.1l-2.1,0.8c1.6,4,3.1,8,4.4,12L629.8,227.8z"/>
<path d="M549.6,118.8c-1.2-0.9-2.3-1.7-3.5-2.6l-1.3,1.9c1.1,0.8,2.3,1.6,3.4,2.5L549.6,118.8z"/>
<path d="M517.3,102.1l1-2l-6.3-3c-1.6-0.9-3.4-1.7-5.3-2.5l-0.9,2.1c1.9,0.8,3.6,1.6,5.2,2.4L517.3,102.1z"/>
<path d="M529.8,108.8c1.3,0.8,2.7,1.6,4.1,2.4c1.3,0.8,2.5,1.5,3.8,2.3l1.2-1.9c-1.3-0.8-2.5-1.5-3.8-2.3c-1.4-0.8-2.7-1.6-4-2.4
	l-4.9-3c-0.7-0.4-1.4-0.7-2.1-1.1l-1,2c0.7,0.3,1.4,0.7,2,1L529.8,108.8z"/>
<path d="M622,207.8c-0.6-1.3-1.2-2.6-1.8-3.9l-2.1,1c0.6,1.3,1.2,2.6,1.8,3.9L622,207.8z"/>
<path d="M485.7,89.3l0.7-2.2c-1.9-0.6-3.5-1-4.8-1.3l-11.8-3l-0.6,2.2l11.8,3C482.4,88.3,483.9,88.7,485.7,89.3z"/>
<path d="M581.5,150.3l1.7-1.5c-4.1-4.6-7.9-8.7-12.1-12.3l-1.5,1.7C573.8,141.8,577.5,145.8,581.5,150.3z"/>
<path d="M604.5,175.8c-2.4-3.6-4.9-7.2-7.4-10.6l-1.8,1.4c2.5,3.4,5,6.9,7.3,10.4L604.5,175.8z"/>
<path d="M590,159.9l1.7-1.4c-0.8-1-1.6-2-2.5-3l-0.3-0.4l-1.7,1.6l0.3,0.3C588.4,158,589.2,158.9,590,159.9z"/>
<path d="M616.4,196.2c-2.7-5.1-5.5-10.2-8.4-15l-1.9,1.2c2.9,4.7,5.7,9.7,8.4,14.8L616.4,196.2z"/>
<path d="M497.8,93.6l0.8-2.1c-1.2-0.4-2.4-0.9-3.6-1.3l-0.4-0.2l-0.8,2.1l0.4,0.2C495.3,92.7,496.5,93.2,497.8,93.6z"/>
<polygon points="640.9,306.9 641.4,297.9 640.3,297.8 641.4,297.7 640.9,288.8 638.7,288.9 639.1,297.8 638.7,306.7 "/>
<rect x="637.2" y="316.3" transform="matrix(4.766406e-02 -0.9989 0.9989 4.766406e-02 291.7932 940.8726)" width="4.3" height="2.3"/>
<path d="M637.4,339.4l1.7-11.2l-2.2-0.4l-1.7,11.2c-0.1,0.5-0.1,1-0.2,1.4l2.2,0.4C637.2,340.4,637.3,339.9,637.4,339.4z"/>
<path d="M621.5,389.1c0.9-1.6,1.7-3.4,2.5-5.3l-2.1-0.9c-0.8,1.9-1.6,3.6-2.4,5.2l-3.1,6.4l2,1L621.5,389.1z"/>
<path d="M568.1,458.7l1.5,1.7c4.6-4.1,8.7-7.9,12.3-12.1l-1.7-1.5C576.7,450.9,572.7,454.6,568.1,458.7z"/>
<path d="M561.5,464.7c-1,0.8-1.9,1.6-2.9,2.4l1.4,1.7c1-0.8,2-1.6,3-2.5l0.4-0.3l-1.6-1.7L561.5,464.7z"/>
<path d="M609.2,412.2c0.8-1.4,1.6-2.7,2.4-4l3-4.9c0.4-0.7,0.7-1.4,1.1-2.1l-2-1c-0.3,0.7-0.7,1.4-1,2l-2.9,4.8
	c-0.8,1.3-1.6,2.7-2.5,4.1c-0.8,1.3-1.5,2.5-2.3,3.8l1.9,1.2C607.6,414.8,608.4,413.5,609.2,412.2z"/>
<path d="M476.1,508.9c-2.8,0.8-5.7,1.6-8.8,2.3l0.5,2.2c3.1-0.7,6-1.4,8.9-2.3c2.5-0.6,5.1-1.4,7.7-2.2l-0.7-2.2
	C481.2,507.6,478.6,508.3,476.1,508.9z"/>
<path d="M454.8,513.4l0.3,2.2c1.4-0.2,2.8-0.4,4.2-0.6l-0.4-2.2C457.6,513,456.1,513.2,454.8,513.4z"/>
<path d="M628.3,372.2l0.2-0.4l-2.1-0.8l-0.2,0.4c-0.5,1.2-0.9,2.4-1.3,3.6l2.1,0.8C627.4,374.5,627.8,373.3,628.3,372.2z"/>
<path d="M444.8,514.9c-2.5,0.4-4.6,0.4-6.4,0.5c-0.9,0-1.8,0.1-2.5,0.1l-2.3,0.1l0.1,2.3l2.3-0.1c0.7-0.1,1.5-0.1,2.4-0.1
	c1.8-0.1,4.1-0.1,6.7-0.5c0.5-0.1,1-0.2,1.5-0.3l-0.4-2.2C445.8,514.7,445.2,514.8,444.8,514.9z"/>
<path d="M632.7,358.8l3-11.8l-2.2-0.6l-3,11.8c-0.3,1.3-0.7,2.9-1.3,4.6l2.2,0.7C632,361.7,632.4,360.1,632.7,358.8z"/>
<polygon points="589.1,436.9 584.5,442 586.2,443.5 589.9,439.4 594.5,433.6 592.6,432.2 "/>
<path d="M521.2,491.6l1,2c5.1-2.7,10.2-5.5,15-8.5l-1.2-1.9C531.3,486.1,526.3,488.9,521.2,491.6z"/>
<path d="M602.2,423.3l-1.9-1.3c-0.8,1.1-1.6,2.3-2.5,3.4l1.8,1.4C600.5,425.6,601.4,424.5,602.2,423.3z"/>
<path d="M509.7,497.1l0.9,2.1c1.3-0.6,2.6-1.2,3.9-1.8l-1-2C512.3,495.9,511,496.5,509.7,497.1z"/>
<path d="M551.9,472.4c-3.4,2.5-6.9,5-10.4,7.3l1.2,1.9c3.6-2.4,7.2-4.9,10.6-7.4L551.9,472.4z"/>
<polygon points="420.6,516.3 411.7,515.9 411.6,518.1 420.6,518.6 420.6,517.4 420.7,518.6 429.7,518.1 429.6,515.9 "/>
<rect x="414.4" y="557.1" transform="matrix(5.006104e-02 -0.9987 0.9987 5.006104e-02 -166.5487 948.9981)" width="2.5" height="10"/>
<path d="M207.9,452.4l-2,1.5c2,2.7,4,5.3,6,8l2-1.5C211.9,457.7,209.9,455.1,207.9,452.4z"/>
<path d="M218.2,469.6c2.1,2.6,4.3,5.1,6.6,7.6l1.9-1.7c-2.2-2.5-4.4-5-6.5-7.5L218.2,469.6z"/>
<path d="M191.6,427.5c-0.8-1.4-1.6-2.8-2.4-4.1l-2.2-4.6l-2.2,1.1l2.3,4.7c0.8,1.4,1.6,2.8,2.4,4.2L191.6,427.5z"/>
<polygon points="163.5,363.9 166,373.5 168.5,372.9 166,363.3 "/>
<polygon points="158.8,325 158.8,324.3 156.3,324.5 157.7,334.5 160.2,334.1 "/>
<path d="M163.4,353.6c-0.5-2.2-0.9-3.8-1.1-5.4l-0.7-4.3l-2.5,0.4l0.7,4.3c0.2,1.6,0.6,3.4,1.1,5.6L163.4,353.6z"/>
<path d="M180.4,410.9l2.2-1.1l-1.2-2.5c-0.4-1-0.9-1.9-1.4-2.8c-0.6-1.2-1.2-2.4-1.7-3.6l-2.3,1c0.5,1.2,1.1,2.4,1.8,3.7
	c0.4,0.9,0.9,1.8,1.3,2.8L180.4,410.9z"/>
<polygon points="171.5,382.2 169.2,383.1 172.6,392.4 174.9,391.5 "/>
<path d="M196.8,436l-2.1,1.3c1.8,2.8,3.6,5.6,5.5,8.4l2.1-1.4C200.4,441.5,198.5,438.7,196.8,436z"/>
<path d="M263.5,508.6l-1.5,2c2.7,2,5.4,3.9,8.1,5.8l1.4-2C268.8,512.5,266.1,510.6,263.5,508.6z"/>
<path d="M240.5,489.6c-2-1.9-4-3.8-6-5.7l-1.1-1.2l-1.8,1.8l1.1,1.1c2,2,4,3.9,6.1,5.8L240.5,489.6z"/>
<polygon points="400.7,562.5 400.8,560 393.6,559.7 391,559.3 390.6,561.7 393.4,562.1 "/>
<path d="M361.1,556.6l0.6-2.4c-1.6-0.4-3.3-0.9-4.9-1.3l-4.7-1.2l-0.6,2.4l4.7,1.2C357.8,555.7,359.4,556.1,361.1,556.6z"/>
<polygon points="341.8,551.6 342.4,549.2 333.1,545.8 332.3,548.2 340.2,551.1 "/>
<rect x="374.7" y="553.2" transform="matrix(0.1509 -0.9885 0.9885 0.1509 -232.5767 845.617)" width="2.5" height="10"/>
<path d="M278.4,522c2.8,1.8,5.6,3.6,8.5,5.3l1.3-2.1c-2.8-1.7-5.6-3.4-8.4-5.3L278.4,522z"/>
<path d="M322.9,544.7l0.9-2.3l-4.8-1.8c-1.4-0.6-2.9-1.3-4.3-2l-1.1,2.2c1.5,0.7,3,1.4,4.5,2.1L322.9,544.7z"/>
<path d="M246.3,498.1c2.5,2.2,5.1,4.3,7.7,6.4l1.5-1.9c-2.6-2.1-5.1-4.2-7.6-6.3L246.3,498.1z"/>
<polygon points="295.7,532.3 304.6,536.6 305.7,534.3 296.7,530 "/>
<polygon points="157.8,304.4 155.3,304.6 155.8,314.5 158.3,314.4 "/>
<rect x="180.2" y="176.6" transform="matrix(0.4338 -0.901 0.901 0.4338 -55.375 267.501)" width="10" height="2.5"/>
<path d="M193.3,165.3c1.7-2.8,3.4-5.6,5.3-8.4l-2.1-1.3c-1.8,2.8-3.6,5.7-5.3,8.5L193.3,165.3z"/>
<polygon points="158.8,270.8 159.2,268.2 156.7,267.8 156.3,270.5 155.9,277.8 158.4,278 "/>
<path d="M227,116l1.8,1.7c1.9-2,3.8-4.1,5.7-6l1.2-1.1l-1.8-1.8l-1.1,1.1C230.8,111.9,228.9,114,227,116z"/>
<path d="M215.9,132.8c2.1-2.6,4.2-5.1,6.3-7.6l-1.9-1.6c-2.2,2.5-4.3,5.1-6.4,7.7L215.9,132.8z"/>
<path d="M165.6,233.9l1.2-4.7l-2.4-0.6l-1.2,4.7c-0.4,1.7-0.8,3.3-1.3,4.9l2.4,0.7C164.7,237.2,165.2,235.6,165.6,233.9z"/>
<path d="M242.9,103.8c2.5-2.2,5-4.4,7.5-6.5l-1.6-1.9c-2.6,2.1-5.1,4.3-7.6,6.6L242.9,103.8z"/>
<path d="M177.8,196.2c0.6-1.4,1.3-2.9,2-4.3l-2.2-1.1c-0.7,1.5-1.4,2.9-2.1,4.5l-1.8,4.8l2.3,0.9L177.8,196.2z"/>
<rect x="155.3" y="252" transform="matrix(0.1515 -0.9885 0.9885 0.1515 -114.3054 373.2723)" width="10" height="2.5"/>
<polygon points="169.3,219.6 172.6,210.3 170.3,209.5 167.4,217.4 166.9,219 "/>
<path d="M204.1,148.7c1.9-2.7,3.8-5.4,5.8-8l-2-1.5c-2,2.7-3.9,5.4-5.8,8.1L204.1,148.7z"/>
<polygon points="345.5,45.6 355.2,43.1 354.6,40.7 344.9,43.2 "/>
<polygon points="336.2,48.7 335.3,46.3 326,49.7 326.1,49.9 326.9,52.1 "/>
<path d="M364.2,38.2l0.6,2.4c2.2-0.5,3.8-0.9,5.4-1.1l4.3-0.7l-0.4-2.5l-4.3,0.7C368.2,37.3,366.5,37.6,364.2,38.2z"/>
<polygon points="384.4,37.4 393.5,36 394.1,36 394,33.5 384,34.9 "/>
<rect x="404" y="32.7" transform="matrix(0.9987 -5.086511e-02 5.086511e-02 0.9987 -1.1973 20.8477)" width="10" height="2.5"/>
<path d="M282.5,74l-1.3-2.1c-2.8,1.8-5.6,3.6-8.4,5.5l1.4,2.1C276.9,77.5,279.7,75.7,282.5,74z"/>
<polygon points="326.4,50.9 326.1,49.9 326,49.8 "/>
<path d="M258.1,91.1c2.6-2,5.3-4,7.9-6l-1.5-2c-2.7,2-5.4,4-8,6L258.1,91.1z"/>
<path d="M295.1,66.4l4.6-2.2l-1.1-2.2l-4.7,2.3c-1.4,0.8-2.8,1.6-4.2,2.4l1.3,2.2C292.3,68,293.7,67.2,295.1,66.4z"/>
<path d="M311.2,58.6c0.9-0.4,1.9-0.9,2.8-1.3c1.2-0.6,2.4-1.2,3.6-1.7l-1-2.3c-1.2,0.6-2.4,1.2-3.7,1.8c-0.9,0.4-1.8,0.9-2.8,1.3
	l-2.6,1.2l1.1,2.3L311.2,58.6z"/>
<polygon points="157.9,287.9 155.4,287.8 154.9,297.7 157.4,297.9 "/>
<path d="M480.2,39.1l-0.6,2.4c1.6,0.4,3.3,0.9,5,1.3l4.7,1.2l0.6-2.4l-4.7-1.2C483.5,39.9,481.8,39.5,480.2,39.1z"/>
<polygon points="499.5,44 498.9,46.5 508.1,49.8 509,47.5 501.1,44.6 "/>
<rect x="464" y="32.4" transform="matrix(0.1516 -0.9884 0.9884 0.1516 357.7279 491.5733)" width="2.5" height="10"/>
<path d="M649.6,168.1c0.8,1.4,1.6,2.8,2.4,4.1l2.2,4.6l2.2-1.1l-2.3-4.7c-0.8-1.4-1.6-2.8-2.4-4.2L649.6,168.1z"/>
<polygon points="440.6,33.1 440.5,35.6 447.7,36 450.3,36.4 450.7,33.9 447.9,33.5 "/>
<rect x="539.3" y="57.3" transform="matrix(0.4344 -0.9007 0.9007 0.4344 249.5641 522.1147)" width="2.5" height="10"/>
<path d="M518.3,50.9l-0.9,2.3l4.8,1.8c1.4,0.6,2.9,1.3,4.3,2l1.1-2.2c-1.5-0.7-2.9-1.4-4.5-2.1L518.3,50.9z"/>
<path d="M562.9,73.6c-2.8-1.8-5.6-3.6-8.5-5.3l-1.3,2.1c2.8,1.7,5.6,3.4,8.4,5.3L562.9,73.6z"/>
<rect x="674" y="222.3" transform="matrix(0.968 -0.2508 0.2508 0.968 -35.4215 176.6216)" width="2.5" height="10"/>
<polygon points="669.8,213.4 672.1,212.5 668.7,203.2 666.4,204.1 "/>
<rect x="424.4" y="28.6" transform="matrix(5.008932e-02 -0.9987 0.9987 5.008932e-02 370.7538 456.9755)" width="2.5" height="10"/>
<path d="M677.8,242c0.5,2.2,0.9,3.8,1.1,5.4l0.7,4.3l2.5-0.4l-0.7-4.3c-0.2-1.7-0.6-3.4-1.1-5.6L677.8,242z"/>
<polygon points="683.5,291.2 686,291.1 685.5,281.1 683,281.2 "/>
<polygon points="682.5,270.7 682.5,271.3 685,271.1 683.5,261.2 681.1,261.5 "/>
<path d="M644.5,159.7l2.1-1.3c-1.8-2.8-3.6-5.6-5.5-8.4l-2.1,1.4C640.9,154.1,642.7,156.9,644.5,159.7z"/>
<path d="M594.9,97.5c-2.5-2.2-5.1-4.3-7.7-6.4l-1.6,1.9c2.6,2.1,5.1,4.2,7.6,6.3L594.9,97.5z"/>
<path d="M623,126c-2.1-2.6-4.3-5.1-6.6-7.6l-1.9,1.7c2.2,2.5,4.4,5,6.5,7.5L623,126z"/>
<path d="M600.7,106c2,1.9,4,3.8,6,5.7l1.1,1.2l1.8-1.8l-1.1-1.2c-2-2-4-3.9-6.1-5.8L600.7,106z"/>
<path d="M660.8,184.7l-2.2,1.1l1.2,2.5c0.4,1,0.9,1.9,1.4,2.8c0.6,1.2,1.2,2.4,1.7,3.6l2.3-1c-0.5-1.2-1.1-2.4-1.7-3.7
	c-0.5-0.9-0.9-1.8-1.3-2.8L660.8,184.7z"/>
<path d="M633.3,143.2l2-1.5c-2-2.7-4-5.4-6-8l-2,1.5C629.4,137.9,631.4,140.6,633.3,143.2z"/>
<path d="M577.8,87l1.5-2c-2.7-2-5.4-3.9-8.1-5.8l-1.4,2C572.5,83.1,575.1,85,577.8,87z"/>
<path d="M546.2,529.2l-4.6,2.2l1.1,2.2l4.7-2.3c1.4-0.8,2.8-1.6,4.2-2.4l-1.3-2.1C548.9,527.6,547.5,528.4,546.2,529.2z"/>
<path d="M644.8,440c1.8-2.8,3.6-5.6,5.3-8.5l-2.1-1.3c-1.7,2.8-3.4,5.6-5.3,8.4L644.8,440z"/>
<rect x="486.2" y="551.2" transform="matrix(0.968 -0.2509 0.2509 0.968 -122.9002 140.9128)" width="10" height="2.5"/>
<path d="M477.1,557.4l-0.6-2.4c-2.2,0.5-3.8,0.9-5.4,1.1l-4.3,0.7l0.4,2.5l4.3-0.7C473.1,558.3,474.8,558,477.1,557.4z"/>
<polygon points="456.9,558.2 447.8,559.6 447.2,559.7 447.3,562.2 457.3,560.7 "/>
<path d="M663.5,399.5c-0.6,1.4-1.3,2.9-2,4.3l2.2,1.1c0.7-1.5,1.4-2.9,2.1-4.5l1.8-4.8l-2.3-0.8L663.5,399.5z"/>
<path d="M558.8,521.7l1.3,2.1c2.8-1.8,5.6-3.6,8.4-5.5l-1.4-2.1C564.3,518.1,561.6,519.9,558.8,521.7z"/>
<path d="M633.4,456.5c2-2.7,3.9-5.4,5.8-8.1l-2-1.4c-1.9,2.7-3.8,5.4-5.8,8L633.4,456.5z"/>
<polygon points="505.1,546.9 505.9,549.3 515.2,545.9 515.2,545.7 514.4,543.5 "/>
<polygon points="514.9,544.7 515.2,545.7 515.2,545.9 "/>
<path d="M530.1,537c-1,0.4-1.9,0.9-2.8,1.4c-1.2,0.6-2.4,1.2-3.6,1.7l1,2.3c1.2-0.6,2.4-1.2,3.7-1.7c0.9-0.5,1.8-0.9,2.8-1.3
	l2.6-1.2l-1.1-2.2L530.1,537z"/>
<path d="M583.1,504.5c-2.6,2-5.3,4-7.9,6l1.5,2c2.7-1.9,5.4-4,8-6L583.1,504.5z"/>
<polygon points="683.4,307.7 685.8,307.8 686.3,297.9 683.9,297.7 "/>
<path d="M675.7,361.7l-1.2,4.7l2.4,0.6l1.2-4.7c0.4-1.7,0.8-3.3,1.3-4.9l-2.4-0.6C676.6,358.4,676.1,360,675.7,361.7z"/>
<polygon points="682.5,324.8 682.1,327.5 684.5,327.8 684.9,325.1 685.3,317.8 682.8,317.7 "/>
<path d="M592.4,500.2c2.6-2.1,5.1-4.3,7.6-6.5l-1.7-1.8c-2.5,2.2-5,4.4-7.5,6.5L592.4,500.2z"/>
<polygon points="652.8,421.7 655.1,422.8 659.4,413.8 657.2,412.7 "/>
<rect x="676.1" y="341.1" transform="matrix(0.1489 -0.9889 0.9889 0.1489 241.1752 964.8868)" width="10" height="2.5"/>
<polygon points="672,376.1 668.6,385.3 671,386.2 673.9,378.3 674.4,376.7 "/>
<rect x="427.3" y="560.4" transform="matrix(0.9987 -5.084735e-02 5.084735e-02 0.9987 -27.9991 22.7076)" width="10" height="2.5"/>
<path d="M620.9,472.1c2.2-2.5,4.3-5.1,6.4-7.7l-1.9-1.6c-2.1,2.6-4.2,5.1-6.3,7.6L620.9,472.1z"/>
<path d="M605.6,485.1l1.8,1.8l1.1-1.1c2-2,3.9-4,5.8-6.1l-1.8-1.7c-1.9,2-3.8,4-5.7,6L605.6,485.1z"/>
<path d="M274.1,536.1c-0.4-0.3-0.9-0.4-1.4-0.3c-0.5,0.2-0.9,0.5-1.1,0.8s-0.2,0.7-0.2,1c0,0.6,0.3,1.2,0.8,1.5v0.1
	c0.9,0.5,2,0.2,2.5-0.6C275.2,537.8,274.9,536.6,274.1,536.1z"/>
<path d="M240.8,512.3c-0.3-0.3-0.5-0.5-0.8-0.7l-1.5-1.4c-0.4-0.3-0.9-0.5-1.4-0.5c-0.5,0.1-0.9,0.3-1.3,0.6
	c-0.3,0.3-0.4,0.8-0.4,1.3s0.2,1,0.6,1.3l1.5,1.4c0.2,0.2,0.5,0.4,0.7,0.6c0.5,0.5,1.1,1,1.8,1.6c0.8,0.6,1.9,0.5,2.6-0.2
	c0.6-0.8,0.5-2-0.2-2.6C241.8,513.2,241.2,512.8,240.8,512.3z"/>
<path d="M408.6,577.3c0,0-2.9-0.1-8.1-0.5c-1,0-1.9-0.1-3-0.1c-1.8,0-3.9-0.1-6.1-0.3c-3.3-0.5-7-1.1-11.1-1.7l-5.1-0.8
	c-3.1-0.5-6.4-1-9.8-1.5c-3-0.6-6.1-1.4-9.4-2.3c-1.9-0.5-3.8-1-5.8-1.5l-0.5-0.1c-2.5-0.6-5-1.3-7.6-2h-0.3
	c-2.7-0.7-5.2-1.3-7.7-2.3l-16.5-6c-0.6-0.2-1.1-0.4-1.6-0.6c-0.4-0.1-0.9-0.1-1.4,0.1c-0.4,0.2-0.8,0.6-1,1
	c-0.1,0.2-0.1,0.4-0.1,0.6c0,0.8,0.5,1.5,1.2,1.7c0.5,0.2,1.1,0.3,1.6,0.5l4.5,1.6c3.9,1.4,7.9,2.9,11.9,4.3
	c2.7,1.1,5.4,1.8,8.1,2.4l4.1,1.1c1.4,0.4,2.9,0.7,4.3,1.1c1.9,0.4,3.7,0.9,5.5,1.4c3.4,0.9,6.7,1.8,10,2.4l18.2,2.7
	c2.8,0.4,5.4,0.8,7.8,1.2l0.1,0.1c2.4,0.2,4.6,0.3,6.5,0.4c1,0,1.9,0.1,2.8,0.1c5,0.2,8.1,0.4,8.1,0.4c1,0.1,1.9-0.7,1.9-1.7v-0.1
	C410.3,578.1,409.6,577.3,408.6,577.3z"/>
<path d="M148.2,363.8c-0.4-0.2-0.9-0.3-1.4-0.2c-0.8,0.2-1.4,1-1.4,1.8c0,0.1,0,0.2,0.1,0.4v0.1c0.2,1,1.2,1.6,2.2,1.4
	s1.6-1.3,1.4-2.3C148.9,364.4,148.6,364,148.2,363.8z"/>
<path d="M219.3,494.9c-0.4,0.4-0.6,0.9-0.6,1.4c0,0.4,0.1,0.9,0.4,1.2h0.1c0.7,0.7,1.8,0.7,2.6,0.1c0.7-0.7,0.8-1.9,0.1-2.6
	C221.3,494.3,220.1,494.2,219.3,494.9z"/>
<path d="M341.2,29.4L341.2,29.4c3.9-1,7.6-1.9,11.1-2.8l4.8-1.2c4.3-1.1,8.3-2.2,11.9-2.5l4.5-0.7c6.6-1,11.8-1.8,15.6-2.4
	c2.3-0.5,4-0.5,5-0.5c1.2-0.1,1.9-0.1,1.9-0.1c1,0,1.8-0.9,1.7-1.9c0-0.5-0.3-1-0.6-1.3c-0.4-0.3-0.8-0.5-1.3-0.5
	c-0.1,0-0.4,0.1-1,0.1H394c-1,0-2.9,0.1-5.5,0.6l-20,3c-3.8,0.5-7.8,1.5-12.1,2.6c-0.7,0.2-1.5,0.4-2.2,0.6l-5.7,1.5
	c-2.6,0.7-5.4,1.4-8.2,2.1c-0.8,0.2-1.4,0.9-1.4,1.8c0,0.1,0.1,0.3,0.1,0.4C339.2,29,340.2,29.6,341.2,29.4z"/>
<path d="M149.4,221.9c-0.5-0.1-1-0.1-1.4,0.2c-0.4,0.2-0.7,0.6-0.8,1.1c-6.6,24.3-10,49.4-10,74.7c0,6.2,0.2,12.4,0.6,18.4v0.1
	c0.1,0.7,0.1,1.4,0.1,2c0,0.5,0.3,1,0.6,1.3c0.4,0.4,0.8,0.5,1.3,0.5c1-0.1,1.8-0.9,1.7-2c-0.1-0.6-0.1-1.2-0.1-1.8l-0.1-0.4
	c-0.4-6-0.6-12-0.6-17.8v-0.4c0-24.8,3.3-49.7,9.8-73.6C151,223.2,150.4,222.1,149.4,221.9z"/>
<path d="M188,139c0.4,0.3,0.9,0.4,1.4,0.3c0.5-0.1,0.9-0.4,1.2-0.7c8.6-12.5,18.2-24.3,28.5-34.9c11.4-11.9,24-22.8,37.5-32.6
	c0.8-0.6,1-1.8,0.4-2.6c-0.3-0.4-0.7-0.6-1.2-0.7c-0.5-0.1-1,0.1-1.4,0.3c-13.8,9.9-26.6,21-38,33c-10.4,10.8-20.2,22.7-28.9,35.3
	c-0.2,0.4-0.3,0.7-0.3,1.1C187.2,138.1,187.5,138.7,188,139z"/>
<path d="M216.1,488.7c-0.8-0.9-1.7-1.9-2.7-2.9c-2.7-2.9-6-6.6-9.7-10.9l0,0l-1.9-2.6c-10.4-13.8-24.7-32.7-35.8-58.3
	c-0.6-1.3-1.2-2.7-1.8-4.1c-0.2-0.4-0.6-0.8-1-1c-0.4-0.1-0.9-0.1-1.4,0.1c-0.7,0.3-1.1,0.9-1.1,1.7c0,0.3,0.1,0.5,0.2,0.8
	c0.6,1.4,1.2,2.7,1.8,4.1c11.2,26,25.6,45,36,58.9c0.7,1,1.4,1.8,2.1,2.8l0,0c3.8,4.4,7.2,8.1,9.9,11.1c0.9,1,1.8,2,2.6,2.9
	c0.7,0.8,1.9,0.8,2.6,0.1C216.7,490.7,216.8,489.4,216.1,488.7L216.1,488.7z"/>
<path d="M140.4,325.1c-0.9,0.1-1.7,0.9-1.7,1.9c0,0,0,0.1,0.1,0.2c0.1,0.9,1,1.7,2,1.6s1.7-1,1.6-2l0,0
	C142.3,325.7,141.4,325,140.4,325.1z"/>
<path d="M331.7,31.9c0.4,0.2,0.9,0.2,1.3,0.1l0,0c0.9-0.3,1.5-1.4,1.1-2.4c-0.1-0.4-0.5-0.8-0.9-1c-0.5-0.2-0.9-0.2-1.4,0
	c-0.7,0.2-1.2,0.9-1.2,1.7c0,0.2,0.1,0.4,0.1,0.6C330.9,31.3,331.2,31.6,331.7,31.9z"/>
<path d="M183.2,146.3c0.8,0.5,2,0.3,2.6-0.6c0.5-0.8,0.2-2-0.6-2.6c-0.9-0.5-2-0.3-2.6,0.6c-0.2,0.3-0.3,0.6-0.3,1
	C182.4,145.4,182.7,146,183.2,146.3z"/>
<path d="M297.2,46.7c0.9-0.4,1.3-1.6,0.8-2.5c-0.4-0.9-1.5-1.3-2.5-0.8c-0.6,0.3-1,1-1,1.6c0,0.3,0,0.6,0.2,0.8
	C295.2,46.8,296.3,47.2,297.2,46.7z"/>
<path d="M164.5,180.6c0.4,0.2,0.9,0.2,1.4,0.1c0.4-0.2,0.8-0.5,1-1c0.4-0.9,0-2-0.9-2.5c-0.4-0.2-0.9-0.2-1.4-0.1
	c-0.4,0.1-0.8,0.5-1,1c-0.1,0.2-0.2,0.5-0.2,0.8C163.4,179.6,163.9,180.3,164.5,180.6z"/>
<path d="M600.5,83.3c0.3,0.2,0.6,0.5,0.8,0.7l1.5,1.4c0.7,0.7,1.9,0.6,2.6-0.1c0.7-0.7,0.6-2-0.1-2.6l-1.5-1.4
	c-0.2-0.2-0.5-0.4-0.8-0.7c-0.5-0.4-1.1-1-1.7-1.5c-0.8-0.6-2-0.6-2.6,0.2c-0.3,0.3-0.5,0.8-0.5,1.2c0,0.5,0.3,1.1,0.7,1.4
	C599.5,82.3,600,82.8,600.5,83.3z"/>
<path d="M432.7,18.4c0,0,2.9,0.1,8,0.4c0.9,0,1.9,0.1,2.9,0.1c1.8,0,3.9,0.2,6.1,0.3c3.3,0.5,7.1,1.1,11.1,1.7l14.8,2.2
	c3,0.6,6.1,1.4,9.5,2.3c1.9,0.5,3.8,1,5.8,1.5l3.7,0.9c1.4,0.4,2.9,0.7,4.3,1.1h0.1c2.7,0.7,5.4,1.3,7.8,2.4
	c5.2,1.9,10.5,3.8,15.7,5.7l0.9,0.3c0.5,0.2,1,0.4,1.5,0.6c1,0.3,2-0.2,2.4-1.1c0.3-1-0.2-2.1-1.1-2.4c-0.6-0.2-1-0.4-1.6-0.6
	l-16.3-6c-2.7-1.1-5.4-1.8-8.1-2.4l-0.3-0.1c-2.7-0.7-5.4-1.4-8.1-2.1c-1.8-0.4-3.7-0.9-5.5-1.4c-3.4-0.9-6.7-1.8-10-2.4l-6.8-1
	c-2.5-0.4-5-0.8-7.3-1.1c-4.4-0.7-8.4-1.2-11.9-1.8h-0.1c-2.4-0.2-4.5-0.3-6.5-0.4c-1,0-1.9-0.1-2.8-0.1l-7.3-0.4
	c-0.5,0-0.7,0-0.7,0c-1-0.1-1.9,0.7-1.9,1.7c0,0,0,0,0,0.1C430.9,17.5,431.7,18.3,432.7,18.4z"/>
<path d="M567.2,59.5c0.4,0.3,0.9,0.4,1.4,0.2c0.5-0.1,0.9-0.5,1.1-0.8c0.5-0.8,0.3-2-0.6-2.6c-0.4-0.2-0.9-0.4-1.4-0.2
	c-0.4,0.1-0.9,0.4-1.1,0.8c-0.1,0.3-0.2,0.6-0.2,0.9C566.3,58.6,566.6,59.2,567.2,59.5z"/>
<path d="M655.5,449.9c-0.2,0.3-0.3,0.7-0.3,1c0,0.6,0.3,1.2,0.8,1.6c0.8,0.5,2,0.3,2.6-0.6c0.5-0.8,0.3-2-0.6-2.6
	C657.2,448.8,656.1,449,655.5,449.9z"/>
<path d="M621.9,100.7c0.7-0.6,0.8-1.9,0.2-2.6c-0.1,0-0.1,0-0.1,0c-0.3-0.4-0.8-0.6-1.3-0.7c-0.5,0-1,0.2-1.3,0.5
	c-0.4,0.4-0.6,0.8-0.6,1.4c0,0.5,0.1,0.9,0.4,1.2C620,101.3,621.2,101.4,621.9,100.7z"/>
<path d="M650.7,457c-8.7,12.6-18.2,24.3-28.5,34.9c-11.3,11.9-23.9,22.8-37.5,32.6c-0.5,0.4-0.8,0.9-0.8,1.5c0,0.4,0.1,0.7,0.3,1.1
	c0.6,0.8,1.8,1,2.6,0.4c13.7-9.9,26.6-21,38-33c10.4-10.8,20.1-22.6,28.9-35.3c0.6-0.8,0.3-2-0.5-2.6S651.3,456.2,650.7,457z"/>
<path d="M694.5,232c1-0.2,1.6-1.2,1.3-2.2c-0.2-1-1.3-1.6-2.2-1.4c-0.8,0.2-1.4,1-1.4,1.8c0,0.1,0,0.3,0.1,0.4
	C692.5,231.7,693.5,232.3,694.5,232z"/>
<path d="M509.6,563.8c-0.4-0.2-1-0.2-1.4-0.1c-0.7,0.2-1.2,1-1.2,1.7c0,0.2,0.1,0.5,0.1,0.6c0.4,1,1.4,1.4,2.4,1.1
	c0.9-0.3,1.5-1.4,1.1-2.3C510.4,564.3,510.1,564,509.6,563.8z"/>
<path d="M625.2,106.9c0.8,0.9,1.7,1.9,2.6,2.9c2.7,2.9,6.1,6.6,9.8,11l1.9,2.6c10.4,13.8,24.6,32.6,35.7,58.3
	c0.7,1.3,1.2,2.7,1.8,4.1c0.4,0.9,1.5,1.3,2.4,0.9c0.9-0.4,1.3-1.5,0.9-2.4c-0.6-1.4-1.2-2.8-1.8-4.1c-11.3-26-25.6-45-36.1-58.9
	c-0.7-1-1.3-1.8-2-2.7v-0.1c-3.7-4.3-7-8-9.7-10.9c-1-1.1-2-2.1-2.8-3.1c-0.7-0.8-1.8-0.8-2.6-0.1c-0.4,0.4-0.6,0.9-0.6,1.4
	C624.7,106.1,624.8,106.6,625.2,106.9C625.1,106.9,625.1,106.9,625.2,106.9z"/>
<path d="M501.5,566.4c-0.4-0.2-0.9-0.4-1.4-0.2c-4.9,1.2-9.6,2.4-14,3.6c-0.7,0.2-1.5,0.4-2.2,0.6c-4.2,1-8.1,2.1-11.7,2.4
	c-8.7,1.3-15.4,2.4-20.1,3.1c-2.4,0.4-4.1,0.5-5,0.5c-1.2,0-1.9,0.1-1.9,0.1c-1,0-1.7,0.8-1.7,1.9l0,0c0.1,1.1,0.9,1.9,1.9,1.8l0,0
	c0.1,0,0.4,0,0.9,0l0.8-0.1c1.1,0,3-0.1,5.5-0.6l20-3c3.8-0.4,7.7-1.4,11.9-2.5c0.8-0.2,1.6-0.4,2.4-0.6c4-1.1,8.4-2.2,13-3.3l1-0.2
	c0.9-0.3,1.6-1.3,1.3-2.3C502.2,567.1,501.9,566.7,501.5,566.4z"/>
<path d="M545.5,548.8c-0.4-0.1-1-0.1-1.4,0.1c-0.6,0.3-1,1-1,1.6c0,0.3,0.1,0.6,0.2,0.8c0.2,0.5,0.6,0.8,1,1c0.5,0.1,1,0.1,1.4-0.1
	c0.9-0.4,1.3-1.6,0.8-2.5C546.4,549.3,546,549,545.5,548.8z"/>
<path d="M703.5,279.4c-0.1-0.3-0.1-0.7-0.1-1.1s-0.1-0.7-0.1-1.1c0-1-1-1.8-2-1.7c-1,0-1.8,1-1.7,2c0,0.7,0.1,1.4,0.1,2.1
	c2.1,31.1-1.1,62.1-9.2,91.8c0,0.1,0,0.3,0,0.5c0,0.8,0.5,1.6,1.4,1.8c1,0.3,2-0.3,2.3-1.3C702.3,342.3,705.6,310.7,703.5,279.4z"/>
<path d="M676.7,415c-0.5-0.2-0.9-0.2-1.4-0.1c-0.5,0.2-0.8,0.5-1.1,1c-0.1,0.3-0.1,0.5-0.1,0.8c0,0.7,0.4,1.4,1.1,1.7
	c0.4,0.2,0.9,0.2,1.4,0c0.4-0.1,0.8-0.5,1-0.9l0,0C678.1,416.6,677.6,415.4,676.7,415z"/>
<path d="M700.9,270.6c1.1-0.1,1.8-1,1.7-2s-1-1.8-2-1.7c-0.9,0.1-1.7,0.9-1.7,1.9v0.1C698.9,269.9,699.9,270.7,700.9,270.6z"/>
<path d="M588.7,299.7c0-88-74.7-159.4-166.8-159.4s-166.8,71.4-166.8,159.4s74.7,159.4,166.8,159.4S588.7,387.7,588.7,299.7z
	 M505.3,383.6c-23.3,23-54.3,35.6-87.3,35.6c-22.7,0-44.5-6-63.4-17.1c-6.8,4-16.7,3-7.5-3.8c3.3-2.9,5.3-6,6-7.6
	c-6.2-4.1-10.9-8-16.2-13.3c-21.1-20.8-32.8-48.4-32.8-77.7c0-29.2,11.6-56.8,32.8-77.7c21.6-21.3,50.4-33,81.1-33
	c20.6,0,40.3,5.3,57.5,15.1c2.5,1.4,12.2,0.6,14.8-1c-22.1-18.4-42.9-22.9-72.3-22.9c-33.1,0-64.1,12.6-87.3,35.5
	c-21.7,21.4-34.1,49.4-35.3,79.3h-30.5c1.2-38.2,17.3-74,45.8-101.1c29.7-28.4,69.2-44,111.3-44s81.6,15.6,111.3,44
	c28.4,27.2,44.6,62.9,45.8,101.1h-38.5c0.1,1.5,0.1,3.1,0.1,4.6C540.7,331.3,528.1,361.1,505.3,383.6z"/>
<path d="M448.2,266.4v82.4h20.9V229.2C456.6,229.2,448.2,255.6,448.2,266.4z"/>
<path d="M419.3,290.5v58.2h20.9v-88.5C427.8,260.2,419.3,279.8,419.3,290.5z"/>
<path d="M390.7,309.7v39h20.9V289C399.2,289,390.7,299,390.7,309.7z"/>
<path d="M422,241c11.2-12.1,27.7-11.8,27.7-11.8h19.4h40.8v-20.1c0,0-27.6,0-56.2,0C425.2,209.2,410.8,253.2,422,241z"/>
<path d="M361.1,370.5c0,0,0.3,16.5-11.8,27.7c-12.1,11.2,31.9-3.1,31.9-31.7s0-56.2,0-56.2h-20.1V370.5z"/>
<circle cx="401.1" cy="372.3" r="5.3"/>
<circle cx="401.1" cy="359.6" r="5.3"/>
<circle cx="371" cy="301.5" r="5.3"/>
<circle cx="371" cy="288.8" r="5.3"/>
<circle cx="371" cy="275.4" r="5.3"/>
<circle cx="429.8" cy="372.3" r="5.3"/>
<circle cx="429.8" cy="359.6" r="5.3"/>
</svg>
